<svg width="215" height="75" viewBox="0 0 215 75" fill="none" xmlns="http://www.w3.org/2000/svg">
<path d="M82.512 47.288C81.168 47.288 79.88 47.112 78.648 46.76C77.416 46.392 76.424 45.92 75.672 45.344L76.992 42.416C77.712 42.928 78.56 43.352 79.536 43.688C80.528 44.008 81.528 44.168 82.536 44.168C83.304 44.168 83.92 44.096 84.384 43.952C84.864 43.792 85.216 43.576 85.44 43.304C85.664 43.032 85.776 42.72 85.776 42.368C85.776 41.92 85.6 41.568 85.248 41.312C84.896 41.04 84.432 40.824 83.856 40.664C83.28 40.488 82.64 40.328 81.936 40.184C81.248 40.024 80.552 39.832 79.848 39.608C79.16 39.384 78.528 39.096 77.952 38.744C77.376 38.392 76.904 37.928 76.536 37.352C76.184 36.776 76.008 36.04 76.008 35.144C76.008 34.184 76.264 33.312 76.776 32.528C77.304 31.728 78.088 31.096 79.128 30.632C80.184 30.152 81.504 29.912 83.088 29.912C84.144 29.912 85.184 30.04 86.208 30.296C87.232 30.536 88.136 30.904 88.92 31.4L87.72 34.352C86.936 33.904 86.152 33.576 85.368 33.368C84.584 33.144 83.816 33.032 83.064 33.032C82.312 33.032 81.696 33.12 81.216 33.296C80.736 33.472 80.392 33.704 80.184 33.992C79.976 34.264 79.872 34.584 79.872 34.952C79.872 35.384 80.048 35.736 80.4 36.008C80.752 36.264 81.216 36.472 81.792 36.632C82.368 36.792 83 36.952 83.688 37.112C84.392 37.272 85.088 37.456 85.776 37.664C86.48 37.872 87.12 38.152 87.696 38.504C88.272 38.856 88.736 39.32 89.088 39.896C89.456 40.472 89.64 41.2 89.64 42.08C89.64 43.024 89.376 43.888 88.848 44.672C88.32 45.456 87.528 46.088 86.472 46.568C85.432 47.048 84.112 47.288 82.512 47.288ZM99.7607 47.288C97.3767 47.288 95.5127 46.624 94.1687 45.296C92.8247 43.968 92.1527 42.072 92.1527 39.608V30.2H96.0407V39.464C96.0407 41.064 96.3687 42.216 97.0247 42.92C97.6807 43.624 98.6007 43.976 99.7847 43.976C100.969 43.976 101.889 43.624 102.545 42.92C103.201 42.216 103.529 41.064 103.529 39.464V30.2H107.369V39.608C107.369 42.072 106.697 43.968 105.353 45.296C104.009 46.624 102.145 47.288 99.7607 47.288ZM116.731 47.288C115.387 47.288 114.099 47.112 112.867 46.76C111.635 46.392 110.643 45.92 109.891 45.344L111.211 42.416C111.931 42.928 112.779 43.352 113.755 43.688C114.747 44.008 115.747 44.168 116.755 44.168C117.523 44.168 118.139 44.096 118.603 43.952C119.083 43.792 119.435 43.576 119.659 43.304C119.883 43.032 119.995 42.72 119.995 42.368C119.995 41.92 119.819 41.568 119.467 41.312C119.115 41.04 118.651 40.824 118.075 40.664C117.499 40.488 116.859 40.328 116.155 40.184C115.467 40.024 114.771 39.832 114.067 39.608C113.379 39.384 112.747 39.096 112.171 38.744C111.595 38.392 111.123 37.928 110.755 37.352C110.403 36.776 110.227 36.04 110.227 35.144C110.227 34.184 110.483 33.312 110.995 32.528C111.523 31.728 112.307 31.096 113.347 30.632C114.403 30.152 115.723 29.912 117.307 29.912C118.363 29.912 119.403 30.04 120.427 30.296C121.451 30.536 122.355 30.904 123.139 31.4L121.939 34.352C121.155 33.904 120.371 33.576 119.587 33.368C118.803 33.144 118.035 33.032 117.283 33.032C116.531 33.032 115.915 33.12 115.435 33.296C114.955 33.472 114.611 33.704 114.403 33.992C114.195 34.264 114.091 34.584 114.091 34.952C114.091 35.384 114.267 35.736 114.619 36.008C114.971 36.264 115.435 36.472 116.011 36.632C116.587 36.792 117.219 36.952 117.907 37.112C118.611 37.272 119.307 37.456 119.995 37.664C120.699 37.872 121.339 38.152 121.915 38.504C122.491 38.856 122.955 39.32 123.307 39.896C123.675 40.472 123.859 41.2 123.859 42.08C123.859 43.024 123.595 43.888 123.067 44.672C122.539 45.456 121.747 46.088 120.691 46.568C119.651 47.048 118.331 47.288 116.731 47.288ZM138.035 30.2H141.923V47H138.035V30.2ZM130.403 47H126.515V30.2H130.403V47ZM138.323 40.112H130.115V36.824H138.323V40.112ZM145.898 47V30.2H149.786V47H145.898ZM153.773 47V30.2H161.045C162.549 30.2 163.845 30.448 164.933 30.944C166.021 31.424 166.861 32.12 167.453 33.032C168.045 33.944 168.341 35.032 168.341 36.296C168.341 37.544 168.045 38.624 167.453 39.536C166.861 40.432 166.021 41.12 164.933 41.6C163.845 42.08 162.549 42.32 161.045 42.32H155.933L157.661 40.616V47H153.773ZM164.453 47L160.253 40.904H164.405L168.653 47H164.453ZM157.661 41.048L155.933 39.224H160.829C162.029 39.224 162.925 38.968 163.517 38.456C164.109 37.928 164.405 37.208 164.405 36.296C164.405 35.368 164.109 34.648 163.517 34.136C162.925 33.624 162.029 33.368 160.829 33.368H155.933L157.661 31.52V41.048ZM169.214 47L176.702 30.2H180.542L188.054 47H183.974L177.83 32.168H179.366L173.198 47H169.214ZM172.958 43.4L173.99 40.448H182.63L183.686 43.4H172.958ZM189.797 47V30.2H193.013L200.165 42.056H198.461L205.493 30.2H208.685L208.733 47H205.085L205.061 35.792H205.733L200.117 45.224H198.365L192.629 35.792H193.445V47H189.797Z" fill="white"/>
<path d="M80.7599 58V52.5412H79.1918C78.8196 52.5412 78.5298 52.6278 78.3224 52.8011C78.1151 52.9744 78.0114 53.2017 78.0114 53.483C78.0114 53.7614 78.1065 53.9858 78.2969 54.1562C78.4901 54.3239 78.7599 54.4077 79.1065 54.4077H81.1307V55.4389H79.1065C78.6236 55.4389 78.206 55.3594 77.8537 55.2003C77.5043 55.0384 77.2344 54.8097 77.044 54.5142C76.8565 54.2187 76.7628 53.8693 76.7628 53.4659C76.7628 53.054 76.8594 52.6989 77.0526 52.4006C77.2486 52.0994 77.5284 51.8665 77.892 51.7017C78.2585 51.5369 78.6918 51.4545 79.1918 51.4545H81.9574V58H80.7599ZM76.4645 58L78.3097 54.6932H79.6136L77.7685 58H76.4645ZM86.8334 58V51.4545H92.1729V58H90.9243V52.554H88.0735V58H86.8334ZM99.8135 58.1321C99.1998 58.1321 98.6643 57.9915 98.2069 57.7102C97.7496 57.429 97.3944 57.0355 97.1416 56.5298C96.8888 56.0241 96.7623 55.4332 96.7623 54.7571C96.7623 54.0781 96.8888 53.4844 97.1416 52.9759C97.3944 52.4673 97.7496 52.0724 98.2069 51.7912C98.6643 51.5099 99.1998 51.3693 99.8135 51.3693C100.427 51.3693 100.963 51.5099 101.42 51.7912C101.877 52.0724 102.233 52.4673 102.485 52.9759C102.738 53.4844 102.865 54.0781 102.865 54.7571C102.865 55.4332 102.738 56.0241 102.485 56.5298C102.233 57.0355 101.877 57.429 101.42 57.7102C100.963 57.9915 100.427 58.1321 99.8135 58.1321ZM99.8177 57.0625C100.215 57.0625 100.545 56.9574 100.806 56.7472C101.068 56.5369 101.261 56.2571 101.386 55.9077C101.514 55.5582 101.578 55.1733 101.578 54.7528C101.578 54.3352 101.514 53.9517 101.386 53.6023C101.261 53.25 101.068 52.9673 100.806 52.7543C100.545 52.5412 100.215 52.4347 99.8177 52.4347C99.4172 52.4347 99.0848 52.5412 98.8206 52.7543C98.5592 52.9673 98.3646 53.25 98.2368 53.6023C98.1118 53.9517 98.0493 54.3352 98.0493 54.7528C98.0493 55.1733 98.1118 55.5582 98.2368 55.9077C98.3646 56.2571 98.5592 56.5369 98.8206 56.7472C99.0848 56.9574 99.4172 57.0625 99.8177 57.0625ZM111.903 54.1776V55.2812H108.357V54.1776H111.903ZM108.715 51.4545V58H107.467V51.4545H108.715ZM112.794 51.4545V58H111.549V51.4545H112.794ZM120.435 58.1321C119.802 58.1321 119.256 57.9886 118.799 57.7017C118.344 57.4119 117.995 57.0128 117.751 56.5043C117.506 55.9957 117.384 55.4134 117.384 54.7571C117.384 54.0923 117.509 53.5057 117.759 52.9972C118.009 52.4858 118.361 52.0866 118.816 51.7997C119.27 51.5128 119.806 51.3693 120.422 51.3693C120.92 51.3693 121.363 51.4616 121.752 51.6463C122.141 51.8281 122.455 52.0838 122.694 52.4134C122.935 52.7429 123.079 53.1278 123.124 53.5682H121.884C121.816 53.2614 121.66 52.9972 121.415 52.7756C121.174 52.554 120.85 52.4432 120.444 52.4432C120.089 52.4432 119.778 52.5369 119.51 52.7244C119.246 52.9091 119.04 53.1733 118.893 53.517C118.745 53.858 118.671 54.2614 118.671 54.7273C118.671 55.2045 118.743 55.6165 118.888 55.9631C119.033 56.3097 119.238 56.5781 119.502 56.7685C119.769 56.9588 120.083 57.054 120.444 57.054C120.685 57.054 120.904 57.0099 121.1 56.9219C121.299 56.831 121.465 56.7017 121.599 56.5341C121.735 56.3665 121.83 56.1648 121.884 55.929H123.124C123.079 56.3523 122.941 56.7301 122.711 57.0625C122.481 57.3949 122.172 57.6562 121.786 57.8466C121.403 58.0369 120.952 58.1321 120.435 58.1321ZM127.667 58V51.4545H128.941V54.1989H129.554L131.715 51.4545H133.292L130.756 54.6378L133.322 58H131.741L129.768 55.3835H128.941V58H127.667ZM139.396 58.1449C138.981 58.1449 138.606 58.0682 138.271 57.9148C137.936 57.7585 137.67 57.5327 137.474 57.2372C137.281 56.9418 137.184 56.5795 137.184 56.1506C137.184 55.7812 137.255 55.4773 137.397 55.2386C137.54 55 137.731 54.8111 137.973 54.6719C138.214 54.5327 138.484 54.4276 138.782 54.3565C139.081 54.2855 139.385 54.2315 139.694 54.1946C140.086 54.1491 140.405 54.1122 140.649 54.0838C140.893 54.0526 141.071 54.0028 141.182 53.9347C141.292 53.8665 141.348 53.7557 141.348 53.6023V53.5724C141.348 53.2003 141.243 52.9119 141.032 52.7074C140.825 52.5028 140.515 52.4006 140.103 52.4006C139.674 52.4006 139.336 52.4957 139.089 52.6861C138.845 52.8736 138.676 53.0824 138.582 53.3125L137.385 53.0398C137.527 52.642 137.734 52.321 138.007 52.0767C138.282 51.8295 138.599 51.6506 138.957 51.5398C139.315 51.4261 139.692 51.3693 140.086 51.3693C140.348 51.3693 140.625 51.4006 140.917 51.4631C141.213 51.5227 141.488 51.6335 141.744 51.7955C142.003 51.9574 142.214 52.1889 142.379 52.4901C142.544 52.7884 142.626 53.1761 142.626 53.6534V58H141.382V57.1051H141.331C141.248 57.2699 141.125 57.4318 140.96 57.5909C140.795 57.75 140.584 57.8821 140.325 57.9872C140.067 58.0923 139.757 58.1449 139.396 58.1449ZM139.673 57.1222C140.025 57.1222 140.326 57.0526 140.576 56.9134C140.829 56.7741 141.021 56.5923 141.152 56.3679C141.285 56.1406 141.352 55.8977 141.352 55.6392V54.7955C141.307 54.8409 141.218 54.8835 141.088 54.9233C140.96 54.9602 140.814 54.9929 140.649 55.0213C140.484 55.0469 140.324 55.071 140.167 55.0938C140.011 55.1136 139.88 55.1307 139.775 55.1449C139.528 55.1761 139.302 55.2287 139.098 55.3026C138.896 55.3764 138.734 55.483 138.612 55.6222C138.493 55.7585 138.433 55.9403 138.433 56.1676C138.433 56.483 138.549 56.7216 138.782 56.8835C139.015 57.0426 139.312 57.1222 139.673 57.1222ZM151.407 58V52.5412H149.838C149.466 52.5412 149.177 52.6278 148.969 52.8011C148.762 52.9744 148.658 53.2017 148.658 53.483C148.658 53.7614 148.753 53.9858 148.944 54.1562C149.137 54.3239 149.407 54.4077 149.753 54.4077H151.777V55.4389H149.753C149.27 55.4389 148.853 55.3594 148.5 55.2003C148.151 55.0384 147.881 54.8097 147.691 54.5142C147.503 54.2187 147.41 53.8693 147.41 53.4659C147.41 53.054 147.506 52.6989 147.699 52.4006C147.895 52.0994 148.175 51.8665 148.539 51.7017C148.905 51.5369 149.338 51.4545 149.838 51.4545H152.604V58H151.407ZM147.111 58L148.956 54.6932H150.26L148.415 58H147.111ZM163.836 58V51.4545H165.11V54.1989H165.724L167.884 51.4545H169.461L166.925 54.6378L169.491 58H167.91L165.937 55.3835H165.11V58H163.836ZM174.501 60.4545C174.311 60.4545 174.137 60.4389 173.981 60.4077C173.825 60.3793 173.708 60.348 173.632 60.3139L173.938 59.2699C174.171 59.3324 174.379 59.3594 174.561 59.3509C174.742 59.3423 174.903 59.2741 175.042 59.1463C175.184 59.0185 175.309 58.8097 175.417 58.5199L175.575 58.0852L173.18 51.4545H174.544L176.201 56.5341H176.269L177.927 51.4545H179.295L176.598 58.8736C176.473 59.2145 176.313 59.5028 176.12 59.7386C175.927 59.9773 175.697 60.1563 175.43 60.2756C175.163 60.3949 174.853 60.4545 174.501 60.4545ZM184.678 51.4545L186.123 54.0028L187.58 51.4545H188.974L186.932 54.7273L188.991 58H187.597L186.123 55.554L184.653 58H183.255L185.292 54.7273L183.28 51.4545H184.678ZM197.898 54.1776V55.2812H194.352V54.1776H197.898ZM194.71 51.4545V58H193.462V51.4545H194.71ZM198.789 51.4545V58H197.544V51.4545H198.789ZM207.577 58V52.5412H206.008C205.636 52.5412 205.346 52.6278 205.139 52.8011C204.932 52.9744 204.828 53.2017 204.828 53.483C204.828 53.7614 204.923 53.9858 205.113 54.1562C205.307 54.3239 205.577 54.4077 205.923 54.4077H207.947V55.4389H205.923C205.44 55.4389 205.023 55.3594 204.67 55.2003C204.321 55.0384 204.051 54.8097 203.861 54.5142C203.673 54.2187 203.579 53.8693 203.579 53.4659C203.579 53.054 203.676 52.6989 203.869 52.4006C204.065 52.0994 204.345 51.8665 204.709 51.7017C205.075 51.5369 205.508 51.4545 206.008 51.4545H208.774V58H207.577ZM203.281 58L205.126 54.6932H206.43L204.585 58H203.281Z" fill="white"/>
<circle cx="26.5" cy="26.5" r="26.5" fill="white"/>
<path fill-rule="evenodd" clip-rule="evenodd" d="M22.1296 8.08418C21.944 8.1868 21.7266 8.50681 21.531 8.9655C21.4266 9.21018 21.3811 9.45414 21.3599 9.88265C21.3172 10.744 21.4406 11.1731 21.95 11.9354C22.2809 12.4305 22.3465 12.6362 22.3465 13.1779C22.3465 13.6828 22.2773 13.9297 22.0323 14.298C21.8462 14.5779 21.8494 14.8682 22.0408 15.0595C22.637 15.6557 23.4946 14.3143 23.3912 12.9472C23.3481 12.3774 23.1679 11.8783 22.8263 11.3827C22.4744 10.872 22.3828 10.61 22.3795 10.1041C22.3766 9.65554 22.4956 9.23364 22.7172 8.90762C22.9014 8.63652 22.9046 8.3599 22.7253 8.19261C22.5409 8.02048 22.3182 7.97994 22.1296 8.08418ZM34.4712 8.13213C34.3529 8.23583 33.7647 9.66809 32.0165 14.1089C30.7519 17.3211 29.7065 19.96 29.6934 19.9731C29.6803 19.9862 28.9563 19.9717 28.0846 19.9407C23.9326 19.7934 19.7508 20.2078 16.4437 21.0942C15.4333 21.365 14.6222 21.6589 13.8006 22.052C12.1275 22.8524 11.3485 23.5775 11.0646 24.5989C10.9294 25.0853 11.0047 25.5822 11.3073 26.1992C11.4243 26.4379 11.6056 26.8513 11.7101 27.118C11.9625 27.7616 12.6827 29.1488 13.1677 29.9251C14.0512 31.3394 14.9614 32.4544 16.5723 34.0955C17.198 34.733 17.7099 35.2998 17.7099 35.3552C17.7099 35.5546 18.0338 36.0888 18.3685 36.4414C19.5229 37.6576 21.5023 38.4836 24.2254 38.8854C25.3452 39.0506 27.8085 39.0345 28.9745 38.8545C32.2834 38.3434 34.8047 36.9721 35.2867 35.4215C35.3449 35.234 35.6186 34.918 36.4941 34.0275C38.3256 32.1646 39.2828 30.9379 40.3014 29.1484C40.6049 28.6152 41.3476 27.0883 41.3476 26.9975C41.3476 26.9756 41.4904 26.6528 41.665 26.2803C41.9594 25.6519 41.9824 25.5698 41.9824 25.1482C41.9823 24.5685 41.8916 24.2728 41.5687 23.8004C40.6415 22.4439 37.929 21.2366 34.3775 20.5998C33.9608 20.525 33.5902 20.4473 33.5541 20.4272C33.5175 20.4067 35.2591 18.4971 37.4724 16.1309C39.6637 13.7881 41.473 11.8058 41.493 11.7257C41.5665 11.4328 41.3048 11.0868 41.0097 11.0868C40.9387 11.0868 40.7964 11.1482 40.6934 11.2232C40.5904 11.2982 38.7147 13.2824 36.5251 15.6325C34.3354 17.9827 32.4694 19.9829 32.3784 20.0774L32.2129 20.2494L31.5073 20.174C31.1191 20.1325 30.8015 20.0814 30.8015 20.0603C30.8015 20.0393 31.8107 17.4603 33.0441 14.3294C34.2775 11.1985 35.2858 8.5676 35.2847 8.48299C35.2824 8.30377 35.1888 8.1654 35.0027 8.06624C34.8043 7.9606 34.6442 7.98042 34.4712 8.13213ZM19.0624 11.1479C18.8689 11.2259 18.5129 11.7861 18.3751 12.2296C18.2138 12.7487 18.2121 13.6038 18.3714 14.1156C18.4352 14.3206 18.6305 14.7063 18.8054 14.9727C19.1179 15.4487 19.2858 15.9018 19.2858 16.2694C19.2858 16.5717 19.1171 17.1305 18.9493 17.3841C18.6462 17.842 18.8169 18.2993 19.2909 18.2993C19.565 18.2993 19.7621 18.0947 20.0205 17.5417C20.4839 16.5502 20.3581 15.3727 19.6894 14.4418C19.3895 14.0244 19.2858 13.6995 19.2858 13.1779C19.2858 12.6941 19.3805 12.3602 19.6159 12.0137C19.8306 11.6977 19.8202 11.4423 19.5841 11.2437C19.3886 11.0792 19.2816 11.0596 19.0624 11.1479ZM25.2565 11.1604C25.087 11.2587 24.9548 11.4294 24.7505 11.8141C24.4962 12.293 24.4165 12.7046 24.4528 13.3521C24.49 14.0164 24.6248 14.399 25.0388 15.0159C25.3942 15.5454 25.4972 15.9165 25.4489 16.4931C25.4215 16.8194 25.366 16.9979 25.1984 17.2975C25.08 17.5094 24.983 17.7545 24.983 17.8422C24.983 18.0774 25.2332 18.2993 25.4983 18.2993C25.7536 18.2993 25.9048 18.1604 26.1603 17.6909C26.398 17.2542 26.4967 16.8355 26.4975 16.2601C26.4985 15.6031 26.3391 15.1069 25.929 14.4908C25.3195 13.5748 25.3106 12.9007 25.8945 11.8651C26.0109 11.6588 26.0132 11.628 25.9285 11.4253C25.8045 11.1286 25.511 11.0128 25.2565 11.1604ZM28.6706 20.9928C28.982 21.0065 29.247 21.0279 29.2593 21.0402C29.2717 21.0525 29.0552 21.6342 28.7782 22.3327C28.307 23.5211 28.2653 23.6016 28.1289 23.5861C27.5792 23.5237 26.611 23.5613 26.2321 23.6599C24.2494 24.1758 22.9113 25.8788 22.9097 27.8885C22.9094 28.2123 22.9424 28.616 22.9832 28.7858C23.0239 28.9555 23.0467 29.1049 23.0338 29.1178C22.9981 29.1535 22.0931 29.0766 22.0205 29.0317C21.9024 28.9587 21.8291 27.9521 21.8973 27.34C22.044 26.0246 22.6127 24.8793 23.5766 23.9579L23.9024 23.6464L23.6106 23.4236C23.2239 23.1283 22.4414 22.7494 21.9526 22.6207C21.4142 22.479 20.2452 22.4795 19.71 22.6217C18.5698 22.9247 17.4978 23.6962 16.9055 24.64C16.7709 24.8545 16.6408 24.9427 15.9772 25.2697C15.3269 25.5901 15.1365 25.7178 14.7681 26.0809C14.4378 26.4064 14.3031 26.59 14.2178 26.831C14.1345 27.0663 14.0808 27.141 14.0134 27.1153C13.6795 26.9883 13.0912 26.5925 12.7302 26.2518C11.818 25.3914 11.8044 24.7883 12.6792 23.9794C14.8918 21.9333 21.5927 20.6818 28.6706 20.9928ZM31.0642 21.1473C31.192 21.1477 31.2874 21.173 31.2763 21.2037C31.2499 21.2765 29.6891 22.965 29.6679 22.9438C29.6589 22.9348 29.7972 22.5612 29.9751 22.1135C30.153 21.6658 30.3167 21.2483 30.339 21.1857C30.3723 21.0918 30.419 21.0784 30.6056 21.1093C30.73 21.1298 30.9364 21.147 31.0642 21.1473ZM33.5896 21.5095C36.4028 21.9766 38.8412 22.8181 40.0752 23.7477C40.9532 24.4092 41.1766 25.0887 40.7415 25.7748C40.5597 26.0615 39.9442 26.6003 39.5371 26.8293L39.2962 26.9647L39.1636 26.5565C38.7046 25.1425 37.5475 23.9174 36.1669 23.3836C35.4869 23.1206 34.9925 23.0291 34.2449 23.0279C32.9423 23.0258 31.784 23.4722 30.7954 24.3573L30.3718 24.7366L30.1294 24.5687C29.9962 24.4763 29.874 24.3796 29.858 24.3537C29.842 24.3279 30.4501 23.6385 31.2093 22.822C32.2703 21.6807 32.6176 21.3427 32.7107 21.3605C32.7774 21.3733 33.1729 21.4403 33.5896 21.5095ZM20.6145 24.699C20.7989 24.8542 20.8521 25.0656 20.7644 25.2943C20.7443 25.3468 20.5465 25.5105 20.325 25.6582C19.5637 26.1655 19.1213 26.9974 19.0592 28.0384C19.0217 28.666 19.0417 28.646 18.5584 28.5403C17.9261 28.4021 17.9904 28.4826 18.033 27.8833C18.095 27.0101 18.3843 26.2333 18.895 25.5687C19.2855 25.0606 19.9961 24.5522 20.3266 24.5445C20.3824 24.5432 20.5119 24.6127 20.6145 24.699ZM35.7715 25.2923C36.5066 25.7925 37.1208 26.7157 37.3126 27.6088L37.3529 27.7966L36.8639 27.9358C36.595 28.0124 36.3676 28.0642 36.3586 28.0511C36.3495 28.0379 36.3079 27.8908 36.2661 27.7241C36.121 27.1462 35.7635 26.598 35.2968 26.2378C34.6969 25.7748 34.6091 25.5748 34.8636 25.2514C35.0717 24.9867 35.3403 24.9989 35.7715 25.2923ZM26.8459 25.224C27.1314 25.532 27.0342 25.8592 26.574 26.1398C26.1088 26.4234 25.8201 26.7323 25.5689 27.215C25.323 27.6876 25.1971 28.3344 25.242 28.8939L25.2732 29.2834L25.0524 29.2469C24.9309 29.2268 24.6883 29.2101 24.5133 29.2097L24.1951 29.209V28.7295C24.1951 27.6357 24.5541 26.6399 25.2011 25.9392C25.8962 25.1862 26.5483 24.9027 26.8459 25.224ZM33.4987 25.6848C33.7193 25.8205 34.4252 26.5102 34.8105 26.9665C35.1784 27.4021 35.7147 28.1841 35.6819 28.2371C35.6678 28.26 35.4338 28.3295 35.162 28.3916C34.7012 28.4968 34.6639 28.4976 34.6109 28.4028C34.4676 28.1467 33.7999 27.3714 33.2958 26.8756C32.8028 26.3907 32.7411 26.3061 32.7411 26.1144C32.741 25.8839 32.819 25.749 33.0138 25.6425C33.1862 25.5481 33.2914 25.5573 33.4987 25.6848ZM32.1627 26.8893C32.5749 27.2548 32.9127 27.7009 33.1618 28.2089C33.3278 28.5472 33.3779 28.7051 33.3279 28.7318C33.2885 28.7528 33.0951 28.7894 32.8982 28.8132C32.7013 28.837 32.5068 28.8693 32.4661 28.8849C32.423 28.9015 32.2992 28.7475 32.1701 28.5166C32.048 28.2984 31.772 27.9437 31.5567 27.7284C31.1343 27.306 31.0733 27.1247 31.2626 26.8544C31.4801 26.5439 31.7865 26.5558 32.1627 26.8893ZM21.1496 27.2847C21.3811 27.5328 21.3738 27.6873 21.11 28.1242C20.9771 28.3443 20.8502 28.5969 20.828 28.6855C20.8058 28.774 20.7658 28.8599 20.7394 28.8763C20.7128 28.8927 20.4813 28.8735 20.2248 28.8337L19.7586 28.7612L19.7933 28.5472C19.8429 28.2419 20.1671 27.6107 20.4025 27.3611C20.6487 27.1 20.9486 27.0693 21.1496 27.2847ZM27.8647 27.8426C28.073 28.0508 28.0596 28.3038 27.826 28.5698C27.7088 28.7034 27.6263 28.8745 27.6059 29.0265L27.5733 29.2696H27.0661H26.5589V29.038C26.5589 28.4175 27.0653 27.6938 27.4995 27.6938C27.6485 27.6938 27.7623 27.7402 27.8647 27.8426ZM18.827 32.1103C19.3975 32.5031 19.6227 32.6121 20.409 32.8753C21.1281 33.116 22.3743 33.3297 23.0617 33.3302C23.493 33.3305 23.7881 33.4331 23.8544 33.6059C23.9353 33.8168 23.8897 34.0657 23.7433 34.212C23.6115 34.3439 23.5421 34.3608 23.1348 34.3608C21.7524 34.3608 20.1095 33.9889 18.9827 33.421C18.4683 33.1617 17.8449 32.6996 17.761 32.5155C17.62 32.2061 17.8683 31.8152 18.2058 31.8152C18.3373 31.8152 18.5346 31.9089 18.827 32.1103ZM19.9828 35.8367C21.8291 36.4417 23.5057 36.7666 25.5134 36.9084C27.283 37.0335 29.5165 36.7898 31.6804 36.2358C32.2139 36.0992 33.8002 35.5912 33.9684 35.5031C34.1763 35.3942 34.0728 35.5633 33.7562 35.8497C31.7527 37.6626 27.4831 38.4445 23.5428 37.72C21.8326 37.4055 20.31 36.7608 19.3582 35.9483C19.0131 35.6537 18.8182 35.3929 19.0236 35.5006C19.0844 35.5325 19.5161 35.6838 19.9828 35.8367Z" fill="black"/>
<circle cx="45" cy="53" r="22" fill="#AA3939"/>
<path fill-rule="evenodd" clip-rule="evenodd" d="M50.3922 43.041C47.9879 43.2836 46.2211 44.2908 45.9786 45.557C45.9089 45.9211 45.9089 51.4961 45.9786 51.8601C46.1985 53.0083 47.6302 53.9264 49.7798 54.2974C50.5316 54.4271 52.1337 54.4407 52.9081 54.3238C54.2878 54.1157 55.4095 53.6699 56.1079 53.0521C56.4821 52.7211 56.6911 52.4248 56.8117 52.054C56.8949 51.7983 56.9001 51.5997 56.9001 48.7086C56.9001 45.8174 56.8949 45.6188 56.8117 45.3631C56.4331 44.1996 54.7979 43.3063 52.5984 43.0616C51.9378 42.988 51.0035 42.9793 50.3922 43.041ZM52.7541 44.0424C54.558 44.2937 55.8891 45.0613 55.8891 45.8503C55.8891 46.5999 54.6774 47.3369 52.9572 47.6337C52.3764 47.7339 51.4336 47.7743 50.7784 47.7272C49.6557 47.6464 48.8163 47.4419 48.064 47.0659C46.5846 46.3265 46.5846 45.374 48.064 44.6346C49.2759 44.029 51.0495 43.805 52.7541 44.0424ZM37.1456 44.9801C35.1346 45.2426 33.6713 46.0114 33.1481 47.0802L33.0178 47.3464L33.0046 50.5121C32.9929 53.3297 32.9998 53.7053 33.0675 53.9281C33.2756 54.6128 33.8474 55.1566 34.8387 55.6127C36.4876 56.3713 38.818 56.5412 40.8525 56.0511C42.5527 55.6416 43.7244 54.7666 43.92 53.7603C43.9873 53.4143 43.9825 47.7571 43.9147 47.4491C43.6448 46.223 42.0411 45.2665 39.771 44.9774C39.157 44.8992 37.7541 44.9006 37.1456 44.9801ZM50.3419 44.9621C49.4192 45.0907 48.9447 45.3934 48.9447 45.8538C48.9447 46.241 49.2874 46.5096 49.9981 46.6796C50.3982 46.7753 51.8426 46.8162 52.3842 46.7473C53.3792 46.6207 53.9119 46.3079 53.9119 45.8503C53.9119 45.4032 53.3885 45.0859 52.4435 44.9602C52.0255 44.9046 50.7463 44.9057 50.3419 44.9621ZM39.3978 45.8975C41.3918 46.0921 42.9396 46.9078 42.9396 47.7642C42.9396 48.6001 41.462 49.3877 39.4871 49.6044C38.878 49.6712 37.4599 49.6358 36.9257 49.5404C35.3741 49.2632 34.2111 48.6223 34.0185 47.938C33.7706 47.0575 35.3857 46.1119 37.5001 45.8997C38.0482 45.8446 38.847 45.8437 39.3978 45.8975ZM37.7102 46.8323C36.4697 46.9508 35.873 47.3253 36.0055 47.9023C36.0775 48.2159 36.479 48.4609 37.1612 48.6073C37.642 48.7105 39.2672 48.71 39.7807 48.6065C40.6526 48.4307 41.0661 48.0687 40.9334 47.5975C40.8363 47.2524 40.3556 46.9922 39.6017 46.8768C39.186 46.8132 38.1625 46.7891 37.7102 46.8323ZM47.2818 57.7422L40.2082 60.1194L36.7451 60.1417L33.2821 60.164L33.1623 60.2717C32.9224 60.4873 32.9752 60.9065 33.2578 61.0297C33.3363 61.0639 33.9771 61.0796 35.2923 61.0796C36.3483 61.0796 37.2024 61.089 37.1904 61.1004C37.1784 61.1119 36.5104 61.3422 35.7059 61.6123C34.9015 61.8823 34.2046 62.1366 34.1575 62.1774C34.0095 62.3056 33.9604 62.523 34.039 62.7029C34.1092 62.8634 34.3134 63 34.4833 63C34.5344 63 35.8683 62.5679 37.4475 62.0398L40.3188 61.0796H48.4205C54.2907 61.0796 56.5538 61.0658 56.6368 61.0297C56.9194 60.9065 56.9722 60.4873 56.7322 60.2717L56.6125 60.164L49.899 60.1417L43.1855 60.1194L48.5837 58.3142C51.5527 57.3213 54.1447 56.4504 54.3436 56.3788C54.762 56.2281 54.8924 56.1022 54.8924 55.849C54.8924 55.6407 54.7076 55.4267 54.4956 55.3895C54.3884 55.3707 52.694 55.9233 47.2818 57.7422Z" fill="black"/>
</svg>
